<svg width="25" height="25" viewBox="0 0 25 25" fill="none" xmlns="http://www.w3.org/2000/svg">
<path d="M24.695 13.2365L19.2277 18.7053C19.0821 18.851 18.8965 18.9502 18.6944 18.9904C18.4923 19.0306 18.2828 19.01 18.0925 18.9312C17.9021 18.8524 17.7394 18.7188 17.6249 18.5475C17.5104 18.3762 17.4493 18.1748 17.4493 17.9688V13.5417H9.375C9.09874 13.5417 8.83379 13.4319 8.63844 13.2366C8.44308 13.0412 8.33334 12.7763 8.33334 12.5C8.33334 12.2237 8.44308 11.9588 8.63844 11.7634C8.83379 11.5681 9.09874 11.4583 9.375 11.4583H17.4493V7.03125C17.4493 6.82521 17.5104 6.62379 17.6249 6.45248C17.7394 6.28116 17.9021 6.14764 18.0925 6.06881C18.2828 5.98997 18.4923 5.96936 18.6944 6.00958C18.8965 6.0498 19.0821 6.14905 19.2277 6.29476L24.695 11.7635C24.8903 11.9589 25 12.2238 25 12.5C25 12.7762 24.8903 13.0412 24.695 13.2365ZM9.375 22.9167H2.08333V2.08333H9.375C9.65127 2.08333 9.91622 1.97359 10.1116 1.77824C10.3069 1.58289 10.4167 1.31793 10.4167 1.04167C10.4167 0.7654 10.3069 0.500448 10.1116 0.305097C9.91622 0.109747 9.65127 0 9.375 0H2.08333C1.53099 0.00063169 1.00146 0.220328 0.610892 0.610892C0.220328 1.00146 0.00063169 1.53099 0 2.08333V22.9167C0.00063169 23.469 0.220328 23.9986 0.610892 24.3891C1.00146 24.7797 1.53099 24.9994 2.08333 25H9.375C9.65127 25 9.91622 24.8903 10.1116 24.6949C10.3069 24.4996 10.4167 24.2346 10.4167 23.9583C10.4167 23.6821 10.3069 23.4171 10.1116 23.2218C9.91622 23.0264 9.65127 22.9167 9.375 22.9167Z" fill="#D8D8D8"/>
</svg>
